# xmcd
#
# Track frame offsets:
#	150
#	21476
#	39222
#	55920
#	73938
#	88330
#	104276
#	124391
#	138396
#	155208
#	174176
#	194546
#	213119
#	234768
#	254837
#	269673
#	289283
#	309008
#
# Disc length: 4313 seconds
#
# Revision: 3
# Processed by: cddbd v1.5.2PL0 Copyright (c) Steve Scherf et al.
# Submitted via: EZCDAudioConverter 7.1.0.1
#
DISCID=1210d712
DTITLE=谢霆锋 - 黄 新曲＋精选 CD贰
DYEAR=2005
DGENRE=
TTITLE0=黄种人(“黄”  国语版)
TTITLE1=青春之最(国语)
TTITLE2=恐龙化石
TTITLE3=坏习惯(acoustic version)
TTITLE4=爱后余生
TTITLE5=边走边爱
TTITLE6=你看我看你
TTITLE7=一了百了
TTITLE8=第二世(solo version)
TTITLE9=苦海孤雏
TTITLE10=不要说谎
TTITLE11=游乐场
TTITLE12=末世纪的呼声
TTITLE13=罪人
TTITLE14=曝光
TTITLE15=估计错误
TTITLE16=细路(谢霆锋+陈奕迅)
TTITLE17=You can't stop me
EXTD=
EXTT0=
EXTT1=
EXTT2=
EXTT3=
EXTT4=
EXTT5=
EXTT6=
EXTT7=
EXTT8=
EXTT9=
EXTT10=
EXTT11=
EXTT12=
EXTT13=
EXTT14=
EXTT15=
EXTT16=
EXTT17=
PLAYORDER=
